<?xml version="1.0" encoding="utf-8"?>
<!-- Generator: Adobe Illustrator 19.0.0, SVG Export Plug-In . SVG Version: 6.00 Build 0)  -->
<svg version="1.1" id="svglogo" xmlns="http://www.w3.org/2000/svg" xmlns:xlink="http://www.w3.org/1999/xlink" x="0px" y="0px"
	 viewBox="192 15.4 1024 451.6" style="enable-background:new 192 15.4 1024 451.6;" xml:space="preserve">
<style type="text/css">
	.st0{fill:#FCFAFA;}
</style>
<g>
	<path class="st0" d="M400.6,24.4l184.9,124.8v1l0,0l0,0v302.3h-99.3l-85.1-57.3v57.2H294.6V327.2l-79.9-51.4V147.2l79.9,54.6V24.4
		H400.6 M480,319.5V205.1L401.1,152v113.5L480,319.5 M401.9,20.4h-1.3h-106h-4v4v169.7L217,143.8l-6.3-4.3v7.6v128.6v2.2l1.8,1.2
		l78.1,50.2v123.1v4h4h106.5h4v-4v-49.7l78.9,53l1,0.7h1.2h99.3h4v-4V150.1v-1V147l-1.8-1.2L402.9,21.1L401.9,20.4L401.9,20.4z
		 M405.1,263.3V159.5l70.9,47.7v104.7L405.1,263.3L405.1,263.3z"/>
</g>
<g>
	<path class="st0" d="M706.6,24.4l182.7,123.1v304.9h-288v-428L706.6,24.4 M706.9,345.9h76.9V207.1L706.9,151V345.9 M707.8,20.4
		h-1.2H601.3h-4v4v428v4h4h288h4v-4V147.5v-2.1l-1.8-1.2L708.8,21.1L707.8,20.4L707.8,20.4z M710.9,341.9v-183l68.9,50.3V342h-68.9
		V341.9z"/>
</g>
<g>
	<path class="st0" d="M1006.1,24.4l185,125.3v122.8L1084.4,346h106.7v106.5h-285V345.9l179.5-130.1l0.6-8.1l-75.6-52.7v63.5H905.1
		V24.4H1006.1 M1007.3,20.4h-1.2h-101h-4v4v194.1v4h4h105.5h4v-4v-55.8l67.4,47l-0.3,3.9l-178,129l-1.7,1.2v2v106.5v4h4h285h4v-4
		V345.9v-4h-4h-93.9l96.1-66.2l1.7-1.2v-2.1V149.6v-2.1l-1.8-1.2L1008.1,21L1007.3,20.4L1007.3,20.4z"/>
</g>
</svg>
