<?xml version="1.0" encoding="utf-8"?>
<!-- Generator: Adobe Illustrator 19.0.0, SVG Export Plug-In . SVG Version: 6.00 Build 0)  -->
<svg version="1.1" id="svglogo" xmlns="http://www.w3.org/2000/svg" xmlns:xlink="http://www.w3.org/1999/xlink" x="0px" y="0px"
	 viewBox="192 15.4 1024 451.6" style="enable-background:new 192 15.4 1024 451.6;" xml:space="preserve">
<g>
	<path d="M585,150.4v-1L397.5,22.9H290v179.8l-81-55.3v130.4l81,52.1v127h108v-58l86.3,58H585V150.4L585,150.4z M398,267.3V152.3
		l80,53.8v116.1L398,267.3z"/>
	<path d="M893,147.8L707.7,22.9H601v434h292V147.8z M708,348.9V151.3l78,56.9v140.7H708z"/>
	<polygon points="1199,149.9 1011.4,22.9 909,22.9 909,219.8 1016,219.8 1016,155.4 1092.3,208.9 1092.3,216 910,348.9 910,456.9 
		1199,456.9 1199,348.9 1090.8,348.9 1199,274.4 	"/>
</g>
</svg>
